<svg width="23" height="14" viewBox="0 0 23 14" fill="none" xmlns="http://www.w3.org/2000/svg">
<path d="M6.8993 0C7.53397 0 8.12096 0.0499999 8.6573 0.198C9.14399 0.288045 9.60856 0.47283 10.025 0.741999C10.4163 0.988998 10.7093 1.336 10.904 1.781C11.0996 2.226 11.197 2.77099 11.197 3.36399C11.197 4.05699 11.051 4.64999 10.7093 5.09499C10.4163 5.54099 9.92763 5.93599 9.34163 6.23299C10.172 6.48099 10.8066 6.92599 11.197 7.51899C11.5883 8.11298 11.8326 8.85498 11.8326 9.69598C11.8326 10.389 11.6856 10.982 11.4413 11.477C11.197 11.972 10.8066 12.417 10.3666 12.714C9.88868 13.0323 9.36034 13.2663 8.8043 13.406C8.2183 13.555 7.6323 13.654 7.0463 13.654H0.5V0H6.8993ZM6.50798 5.53999C7.04531 5.53999 7.4853 5.39199 7.82697 5.14499C8.16864 4.89799 8.31563 4.45199 8.31563 3.90799C8.31563 3.61099 8.26597 3.31399 8.16864 3.11699C8.0713 2.91899 7.9243 2.76999 7.72963 2.622C7.53397 2.523 7.33831 2.424 7.09397 2.375C6.84964 2.325 6.6063 2.325 6.31231 2.325H3.47965V5.54099H6.50897L6.50798 5.53999ZM6.65497 11.378C6.94797 11.378 7.24097 11.328 7.4853 11.279C7.73199 11.2317 7.96531 11.1303 8.16864 10.982C8.36766 10.8372 8.53417 10.6519 8.6573 10.438C8.75463 10.191 8.85296 9.89398 8.85296 9.54798C8.85296 8.85498 8.6573 8.35998 8.26696 8.01398C7.87564 7.71699 7.33831 7.56899 6.70364 7.56899H3.47965V11.379L6.65497 11.378ZM16.0826 11.328C16.4729 11.724 17.0589 11.922 17.8406 11.922C18.3779 11.922 18.8666 11.774 19.2569 11.527C19.6483 11.23 19.8926 10.933 19.9899 10.636H22.3836C21.9922 11.823 21.4062 12.664 20.6256 13.208C19.8429 13.703 18.9153 14 17.7919 14C17.0732 14.0022 16.3605 13.8678 15.6913 13.604C15.0891 13.3765 14.5521 13.0028 14.1279 12.516C13.6743 12.0606 13.339 11.4997 13.1516 10.883C12.9073 10.24 12.809 9.54798 12.809 8.75598C12.809 8.01399 12.9073 7.32199 13.1516 6.67799C13.3865 6.05808 13.7341 5.48767 14.1766 4.99599C14.6166 4.55099 15.1539 4.15599 15.7399 3.90799C16.3922 3.64406 17.089 3.50959 17.7919 3.51199C18.6223 3.51199 19.3552 3.66099 19.9899 4.00699C20.6256 4.35299 21.1132 4.74899 21.5046 5.34299C21.9038 5.91352 22.2012 6.54969 22.3836 7.22299C22.4809 7.91498 22.5296 8.60798 22.4809 9.39898H15.3983C15.3983 10.191 15.6913 10.933 16.0826 11.329V11.328ZM19.1596 6.13399C18.8179 5.78799 18.2806 5.58999 17.6449 5.58999C17.2722 5.58436 16.9036 5.66908 16.5703 5.83699C16.2773 5.98599 16.0826 6.18399 15.8869 6.38199C15.7071 6.57324 15.5882 6.81421 15.5453 7.07399C15.4956 7.32199 15.4469 7.51899 15.4469 7.71699H19.8429C19.7456 6.97499 19.5013 6.48099 19.1596 6.13399ZM14.8609 0.939998H20.3316V2.276H14.8619V0.939998H14.8609Z" fill="#A78047"/>
</svg>
