<svg width="20" height="20" viewBox="0 0 20 20" fill="none" xmlns="http://www.w3.org/2000/svg">
<path fill-rule="evenodd" clip-rule="evenodd" d="M7.63196 6.69024H11.1974V8.46624C11.711 7.4448 13.0281 6.52704 15.0067 6.52704C18.7996 6.52704 19.7001 8.56032 19.7001 12.2909V19.2H15.8601V13.1405C15.8601 11.016 15.3465 9.81792 14.039 9.81792C12.2256 9.81792 11.472 11.1091 11.472 13.1395V19.2H7.63196V6.69024ZM1.04732 19.0368H4.88732V6.52704H1.04732V19.0368ZM5.4374 2.448C5.43754 2.76986 5.37371 3.08855 5.24961 3.38552C5.12552 3.6825 4.94363 3.95185 4.71452 4.17792C4.25027 4.63932 3.62186 4.89759 2.96732 4.896C2.31394 4.89556 1.68698 4.63795 1.22204 4.17888C0.993765 3.95204 0.812492 3.68239 0.688612 3.38537C0.564731 3.08836 0.500678 2.76982 0.500122 2.448C0.500122 1.79808 0.759322 1.176 1.223 0.71712C1.68753 0.257432 2.31475 -0.000287242 2.96828 2.40254e-07C3.623 2.40254e-07 4.25084 0.25824 4.71452 0.71712C5.17724 1.176 5.4374 1.79808 5.4374 2.448Z" fill="#A78047"/>
</svg>
