<svg width="21" height="20" viewBox="0 0 21 20" fill="none" xmlns="http://www.w3.org/2000/svg">
<path d="M10.7686 8.17238C10.8832 7.82863 11.3686 7.82863 11.4832 8.17238L12.1551 10.1901C12.3029 10.6336 12.5521 11.0366 12.8828 11.3672C13.2135 11.6977 13.6167 11.9466 14.0603 12.0943L16.077 12.7662C16.4207 12.8807 16.4207 13.3662 16.077 13.4807L14.0592 14.1526C13.6157 14.3005 13.2127 14.5497 12.8822 14.8804C12.5517 15.2111 12.3027 15.6142 12.1551 16.0578L11.4832 18.0745C11.4585 18.1498 11.4106 18.2153 11.3465 18.2618C11.2823 18.3083 11.2051 18.3333 11.1259 18.3333C11.0467 18.3333 10.9695 18.3083 10.9053 18.2618C10.8411 18.2153 10.7933 18.1498 10.7686 18.0745L10.0967 16.0568C9.94894 15.6134 9.69993 15.2104 9.36942 14.8799C9.03891 14.5494 8.63598 14.3004 8.19255 14.1526L6.17483 13.4807C6.09956 13.456 6.03401 13.4082 5.98754 13.344C5.94107 13.2799 5.91605 13.2027 5.91605 13.1234C5.91605 13.0442 5.94107 12.967 5.98754 12.9029C6.03401 12.8387 6.09956 12.7909 6.17483 12.7662L8.19255 12.0943C8.63598 11.9465 9.03891 11.6975 9.36942 11.367C9.69993 11.0365 9.94894 10.6335 10.0967 10.1901L10.7686 8.17238ZM6.74462 2.8609C6.75956 2.81579 6.78833 2.77654 6.82686 2.74872C6.86538 2.72089 6.91169 2.70592 6.95921 2.70592C7.00673 2.70592 7.05304 2.72089 7.09156 2.74872C7.13008 2.77654 7.15885 2.81579 7.17379 2.8609L7.57692 4.07133C7.75713 4.61091 8.18005 5.03383 8.71963 5.21404L9.93005 5.61717C9.97516 5.6321 10.0144 5.66088 10.0422 5.6994C10.0701 5.73792 10.085 5.78423 10.085 5.83175C10.085 5.87927 10.0701 5.92558 10.0422 5.9641C10.0144 6.00262 9.97516 6.0314 9.93005 6.04633L8.71963 6.44946C8.45351 6.53812 8.2117 6.68755 8.01335 6.88589C7.81501 7.08424 7.66558 7.32605 7.57692 7.59217L7.17379 8.8026C7.15885 8.84771 7.13008 8.88696 7.09156 8.91478C7.05304 8.94261 7.00673 8.95758 6.95921 8.95758C6.91169 8.95758 6.86538 8.94261 6.82686 8.91478C6.78833 8.88696 6.75956 8.84771 6.74462 8.8026L6.3415 7.59217C6.25283 7.32605 6.10341 7.08424 5.90506 6.88589C5.70672 6.68755 5.4649 6.53812 5.19878 6.44946L3.98836 6.04633C3.94325 6.0314 3.904 6.00262 3.87617 5.9641C3.84835 5.92558 3.83337 5.87927 3.83337 5.83175C3.83337 5.78423 3.84835 5.73792 3.87617 5.6994C3.904 5.66088 3.94325 5.6321 3.98836 5.61717L5.19878 5.21404C5.4649 5.12538 5.70672 4.97595 5.90506 4.77761C6.10341 4.57926 6.25283 4.33745 6.3415 4.07133L6.74462 2.8609ZM14.1082 1.76819C14.1185 1.73853 14.1377 1.71281 14.1633 1.69461C14.1889 1.67641 14.2195 1.66663 14.2509 1.66663C14.2823 1.66663 14.3129 1.67641 14.3385 1.69461C14.3641 1.71281 14.3833 1.73853 14.3936 1.76819L14.6624 2.57444C14.7822 2.93486 15.0644 3.21716 15.4249 3.33695L16.2311 3.6057C16.2608 3.61598 16.2865 3.63525 16.3047 3.66083C16.3229 3.6864 16.3327 3.71702 16.3327 3.74841C16.3327 3.7798 16.3229 3.81041 16.3047 3.83599C16.2865 3.86156 16.2608 3.88083 16.2311 3.89112L15.4249 4.15987C15.2472 4.21895 15.0859 4.31864 14.9535 4.451C14.8211 4.58336 14.7214 4.74475 14.6624 4.92237L14.3936 5.72862C14.3833 5.75828 14.3641 5.784 14.3385 5.80221C14.3129 5.82041 14.2823 5.83019 14.2509 5.83019C14.2195 5.83019 14.1889 5.82041 14.1633 5.80221C14.1377 5.784 14.1185 5.75828 14.1082 5.72862L13.8394 4.92237C13.7804 4.74475 13.6807 4.58336 13.5483 4.451C13.416 4.31864 13.2546 4.21895 13.0769 4.15987L12.2717 3.89112C12.2421 3.88083 12.2163 3.86156 12.1981 3.83599C12.1799 3.81041 12.1702 3.7798 12.1702 3.74841C12.1702 3.71702 12.1799 3.6864 12.1981 3.66083C12.2163 3.63525 12.2421 3.61598 12.2717 3.6057L13.078 3.33695C13.4384 3.21716 13.7207 2.93486 13.8405 2.57444L14.1082 1.76923V1.76819Z" fill="#A78047"/>
</svg>
